<?xml version="1.0" standalone="no"?>
<!DOCTYPE svg PUBLIC "-//W3C//DTD SVG 20010904//EN"
 "http://www.w3.org/TR/2001/REC-SVG-20010904/DTD/svg10.dtd">
<svg version="1.0" xmlns="http://www.w3.org/2000/svg"
 width="300.000000pt" height="300.000000pt" viewBox="0 0 300.000000 300.000000"
 preserveAspectRatio="xMidYMid meet">
<metadata>
Created by potrace 1.10, written by Peter Selinger 2001-2011
</metadata>
<g transform="translate(0.000000,300.000000) scale(0.100000,-0.100000)"
fill="#000000" stroke="none">
<path d="M1325 2714 c-16 -3 -73 -16 -127 -29 -285 -71 -549 -257 -712 -503
-143 -215 -206 -423 -206 -683 0 -246 66 -467 200 -672 59 -91 197 -238 290
-308 85 -65 283 -163 391 -193 347 -98 720 -39 1020 160 94 62 226 189 300
287 111 148 203 369 228 551 34 246 -3 483 -113 711 -129 268 -368 493 -638
599 -159 62 -241 78 -428 81 -96 2 -188 1 -205 -1z m348 -69 c234 -35 448
-140 621 -305 476 -452 486 -1193 22 -1656 -445 -445 -1156 -456 -1610 -24
-380 361 -473 913 -231 1379 59 112 124 198 227 297 94 91 169 144 276 198
215 108 457 147 695 111z"/>
<path d="M1365 2145 c-68 -15 -153 -47 -191 -71 -23 -16 -29 -15 -89 5 -124
40 -226 21 -305 -58 -48 -49 -114 -167 -171 -310 -36 -88 -88 -157 -153 -202
-20 -13 -36 -26 -36 -29 0 -3 19 -18 41 -34 49 -34 148 -157 177 -217 11 -24
34 -74 51 -110 82 -176 215 -245 396 -204 l77 17 68 -31 c74 -34 193 -61 271
-61 78 0 197 29 279 67 70 32 81 35 166 33 195 -3 293 76 379 305 43 116 118
212 217 278 l38 25 -50 32 c-79 51 -126 113 -200 265 -73 152 -133 230 -204
268 -63 33 -172 31 -251 -6 l-61 -28 -56 26 c-114 52 -268 68 -393 40z m345
-48 c92 -33 195 -102 260 -175 27 -31 48 -57 47 -59 -2 -1 -223 -9 -493 -18
-269 -8 -506 -16 -526 -18 -21 -1 -38 1 -38 4 0 14 78 106 125 147 66 58 146
102 235 129 64 19 93 22 195 20 100 -3 133 -8 195 -30z m416 -17 c73 -42 128
-122 208 -304 35 -80 87 -148 146 -191 l50 -37 -50 -39 c-80 -64 -136 -142
-180 -256 -61 -158 -110 -222 -202 -263 -41 -18 -208 -41 -208 -29 0 3 35 41
79 85 61 62 87 98 119 164 22 47 46 110 53 140 19 77 16 241 -5 319 -36 135
-127 271 -231 348 -35 26 -63 49 -61 50 15 16 123 42 171 43 48 0 70 -6 111
-30z m-1091 -15 c81 -14 83 -21 21 -77 -31 -27 -78 -84 -106 -126 -160 -243
-142 -558 44 -784 29 -35 72 -76 95 -92 52 -37 42 -45 -64 -53 -163 -13 -237
43 -339 252 -57 115 -76 145 -145 218 l-80 84 25 14 c50 26 108 104 143 190
83 204 155 320 224 355 32 17 104 33 127 29 8 -2 33 -6 55 -10z m714 -704
l-251 -462 -262 448 c-145 246 -262 449 -261 451 1 1 211 9 466 17 255 8 484
16 509 18 25 1 46 -1 48 -4 1 -3 -110 -214 -249 -468z m321 407 c144 -309 17
-681 -282 -827 -93 -46 -191 -74 -241 -69 l-33 3 104 190 c57 105 174 319 259
478 86 158 158 287 160 287 2 0 17 -28 33 -62z m-857 -433 c132 -225 246 -419
253 -430 21 -29 17 -35 -18 -35 -128 1 -312 91 -414 202 -106 116 -156 240
-162 404 -4 118 9 193 49 283 l20 46 16 -30 c9 -16 124 -214 256 -440z"/>
</g>
</svg>
